<svg width="114" height="14" viewBox="0 0 114 14" version="1.1" xmlns="http://www.w3.org/2000/svg" xmlns:xlink="http://www.w3.org/1999/xlink">
<g id="Canvas" transform="translate(246 135)">
<g id="LUMDB">
<g id="Shape">
<use xlink:href="#path0_fill" transform="translate(-141 -133.336)" fill="#FFFFFF"/>
</g>
<g id="Shape">
<use xlink:href="#path1_fill" transform="translate(-246 -133.337)" fill="#FFFFFF"/>
</g>
<g id="LUMDB">
<use xlink:href="#path2_fill" transform="translate(-227.224 -134.85)" fill="#FFFFFF"/>
<use xlink:href="#path3_fill" transform="translate(-227.224 -134.85)" fill="#FFFFFF"/>
<use xlink:href="#path4_fill" transform="translate(-227.224 -134.85)" fill="#FFFFFF"/>
<use xlink:href="#path5_fill" transform="translate(-227.224 -134.85)" fill="#FFFFFF"/>
<use xlink:href="#path6_fill" transform="translate(-227.224 -134.85)" fill="#FFFFFF"/>
</g>
</g>
</g>
<defs>
<path id="path0_fill" fill-rule="evenodd" d="M -8.20312e-07 7.61942L 5.845 5.06449L -8.20312e-07 2.18291L -8.20312e-07 1.56572e-06L 8.65481 4.50974L 8.65481 5.80932L -8.20312e-07 9.79185L -8.20312e-07 7.61942Z"/>
<path id="path1_fill" fill-rule="evenodd" d="M 8.65404 9.79185L 1.91309e-06 5.80932L 1.91309e-06 4.50974L 8.65404 3.66602e-07L 8.65404 2.18291L 2.80942 5.06448L 8.65404 7.61942L 8.65404 9.79185Z"/>
<path id="path2_fill" d="M 0 12.8496L 0 0L 2.72461 0L 2.72461 10.5996L 7.93652 10.5996L 7.93652 12.8496L 0 12.8496Z"/>
<path id="path3_fill" d="M 23.3367 0L 23.3367 8.31445C 23.3367 9.26367 23.1229 10.0957 22.6951 10.8105C 22.2732 11.5254 21.6609 12.0732 20.8582 12.4541C 20.0555 12.835 19.1063 13.0254 18.0105 13.0254C 16.3582 13.0254 15.075 12.6035 14.1609 11.7598C 13.2469 10.9102 12.7898 9.75 12.7898 8.2793L 12.7898 0L 15.5057 0L 15.5057 7.86621C 15.5057 8.85645 15.7049 9.58301 16.1033 10.0459C 16.5018 10.5088 17.1609 10.7402 18.0809 10.7402C 18.9715 10.7402 19.616 10.5088 20.0145 10.0459C 20.4188 9.57715 20.6209 8.84473 20.6209 7.84863L 20.6209 0L 23.3367 0Z"/>
<path id="path4_fill" d="M 34.6236 12.8496L 31.5299 2.76855L 31.4508 2.76855C 31.5621 4.81934 31.6178 6.1875 31.6178 6.87305L 31.6178 12.8496L 29.1832 12.8496L 29.1832 0L 32.8922 0L 35.9332 9.82617L 35.9859 9.82617L 39.2115 0L 42.9205 0L 42.9205 12.8496L 40.3805 12.8496L 40.3805 6.76758C 40.3805 6.48047 40.3834 6.14941 40.3893 5.77441C 40.401 5.39941 40.442 4.40332 40.5123 2.78613L 40.4332 2.78613L 37.1197 12.8496L 34.6236 12.8496Z"/>
<path id="path5_fill" d="M 59.5248 6.30176C 59.5248 8.41699 58.9213 10.0371 57.7143 11.1621C 56.5131 12.2871 54.7758 12.8496 52.5023 12.8496L 48.8637 12.8496L 48.8637 0L 52.8979 0C 54.9955 0 56.6244 0.553711 57.7846 1.66113C 58.9447 2.76855 59.5248 4.31543 59.5248 6.30176ZM 56.6947 6.37207C 56.6947 3.6123 55.476 2.23242 53.0385 2.23242L 51.5883 2.23242L 51.5883 10.5996L 52.7572 10.5996C 55.3822 10.5996 56.6947 9.19043 56.6947 6.37207Z"/>
<path id="path6_fill" d="M 64.8879 0L 68.8869 0C 70.7092 0 72.0305 0.260742 72.8508 0.782227C 73.677 1.29785 74.09 2.12109 74.09 3.25195C 74.09 4.01953 73.9084 4.64941 73.5451 5.1416C 73.1877 5.63379 72.7102 5.92969 72.1125 6.0293L 72.1125 6.11719C 72.927 6.29883 73.5129 6.63867 73.8703 7.13672C 74.2336 7.63477 74.4152 8.29688 74.4152 9.12305C 74.4152 10.2949 73.9904 11.209 73.1408 11.8652C 72.2971 12.5215 71.1486 12.8496 69.6955 12.8496L 64.8879 12.8496L 64.8879 0ZM 67.6125 5.08887L 69.1945 5.08887C 69.9328 5.08887 70.466 4.97461 70.7941 4.74609C 71.1281 4.51758 71.2951 4.13965 71.2951 3.6123C 71.2951 3.12012 71.1135 2.76855 70.7502 2.55762C 70.3928 2.34082 69.8244 2.23242 69.0451 2.23242L 67.6125 2.23242L 67.6125 5.08887ZM 67.6125 7.25098L 67.6125 10.5996L 69.3879 10.5996C 70.1379 10.5996 70.6916 10.4561 71.049 10.1689C 71.4064 9.88184 71.5852 9.44238 71.5852 8.85059C 71.5852 7.78418 70.8234 7.25098 69.3 7.25098L 67.6125 7.25098Z"/>
</defs>
</svg>
